<svg xmlns="http://www.w3.org/2000/svg" width="10" height="16" viewBox="0 0 10 16" fill="none">
  <path fill-rule="evenodd" clip-rule="evenodd" d="M1.01451 1.70082C1.06131 1.74222 1.11771 1.77463 1.16631 1.81483C1.21971 1.85803 1.44771 1.99542 1.48371 2.04762C1.51911 2.10042 1.56351 2.14542 1.67871 2.11782C1.75851 2.09922 1.90071 2.01522 1.73391 2.24082C1.86471 2.25582 1.81911 2.44902 2.07411 2.33862L2.13651 2.40102C2.12391 2.45262 2.11911 2.49763 2.15331 2.50243C2.18271 2.50723 2.25411 2.57082 2.24931 2.61042C2.24211 2.67042 2.26791 2.69802 2.29731 2.72143C2.32731 2.74482 2.32971 2.79462 2.26491 2.91162C2.47491 2.76222 2.30631 2.99083 2.32971 3.02743C2.34951 3.05863 2.50491 2.95542 2.57691 2.93562C2.61231 2.92602 2.62491 2.94162 2.59431 2.99682C2.41551 3.32382 3.04671 3.21163 2.96931 3.32142C2.87451 3.45823 2.83911 3.53502 2.89791 3.52182C2.95311 3.50922 3.11091 3.39043 3.04251 3.50563C2.99811 3.58063 3.23691 3.49902 3.23091 3.54702C3.22671 3.58662 3.31611 3.53502 3.27231 3.60942C3.10611 3.88902 3.27231 3.83803 3.33591 3.88902C3.37971 3.92502 3.44871 3.93522 3.49131 3.97302L3.87591 4.33242C3.89451 4.34862 3.92691 4.35223 3.99531 4.31803C4.01271 4.31083 4.02291 4.30662 4.03731 4.30122L4.12851 4.39243C4.07871 4.53582 4.09131 4.61802 4.26951 4.53342L4.36371 4.62762C4.36311 4.64383 4.37151 4.65163 4.38771 4.65163L6.56751 6.83143C6.55371 6.85903 6.53631 6.89083 6.51111 6.92923C6.45651 7.01383 6.65031 7.04563 6.61011 7.11943C6.58011 7.17523 6.91611 7.06542 6.80991 7.21602C6.69891 7.37322 6.86871 7.24602 6.89451 7.26402C6.87111 7.29582 6.85671 7.32102 6.86091 7.33003C6.88371 7.37743 6.89811 7.43383 6.92631 7.47703C6.95091 7.51423 7.40121 7.6518 7.40022 7.66611C7.39956 7.67565 7.22159 7.85362 6.86631 8.20003C6.77511 8.16043 6.78951 8.22823 6.78711 8.27923L6.74391 8.32242C6.72951 8.32002 6.71211 8.31462 6.68631 8.30142C6.61671 8.26482 6.53391 8.44303 6.51831 8.54803L5.35551 9.71082C5.26911 9.78043 5.19231 9.85962 5.11671 9.94003C5.07291 9.93583 5.07171 9.97662 5.01051 9.95562C4.96851 9.94123 4.98651 9.98623 5.01651 10.0432C4.94811 10.1122 4.87611 10.1776 4.79331 10.2316C4.79571 10.2454 4.79751 10.2544 4.79931 10.267L4.74411 10.3222C4.68711 10.3126 4.63851 10.312 4.67271 10.3936L4.52091 10.5454C4.46871 10.5838 4.43091 10.6294 4.42491 10.6354C4.22031 10.7356 4.06491 10.888 3.91971 11.0482C3.76011 11.224 3.01731 11.8768 2.82831 12.0556L2.30211 12.5434L1.07391 13.75C0.730707 14.0932 0.945507 14.4376 1.28331 14.7358C1.79271 15.1852 2.09151 15.0454 2.25051 14.9464C2.27871 14.929 2.49891 14.8294 2.54691 14.7334L4.98351 12.4732C5.08971 12.4648 5.15211 12.4096 5.16591 12.304L5.54511 11.9176L5.54811 11.9158C5.72391 11.8564 6.38811 11.0746 6.55671 11.0458C6.73191 11.0158 6.72651 10.8106 6.77811 10.6594L6.92691 10.507C6.94911 10.5016 6.96831 10.4938 6.99651 10.4938C7.32531 10.498 7.44771 10.2748 7.58031 10.0702C7.61751 10.0132 7.61151 9.91603 7.60731 9.82063C7.61451 9.81523 7.62171 9.80923 7.62171 9.80923C7.72251 9.68863 7.80951 9.55422 7.90731 9.43003C7.92291 9.40963 8.04951 9.30043 8.06331 9.25183C8.08251 9.18283 8.32431 9.07663 8.29671 8.96023C8.25231 8.77543 8.36271 8.74423 8.61711 8.85883C8.66931 8.88223 8.72451 8.74842 8.73291 8.71422C8.74431 8.67222 8.94171 8.71482 8.93991 8.68662C8.93571 8.63863 8.90331 8.56303 8.89371 8.50903C8.88951 8.48863 9.11691 8.41722 9.12831 8.29663C9.12951 8.28703 9.15471 8.27503 9.19491 8.25403C9.33591 8.18023 9.40431 8.02303 9.37191 7.87543L9.19491 7.07683C9.18771 7.04203 9.17031 6.98563 9.15831 6.96223C9.13971 6.92803 9.10491 6.90942 9.07191 6.88902C9.04191 6.86562 8.79771 6.67243 8.78271 6.66103C8.66331 6.55903 8.54211 6.45883 8.41011 6.36943C8.38911 6.35563 8.33571 6.37302 8.25471 6.42042C8.16831 6.47202 8.22411 6.15582 8.13591 6.14682C8.17251 6.03162 8.16771 5.95603 8.16951 5.87503C8.17191 5.78503 8.12571 5.74183 8.07111 5.70823C8.01711 5.67463 7.92591 5.67763 7.85031 5.66503C7.66131 5.81083 7.79991 5.63083 7.81131 5.57743C7.81791 5.54503 7.74531 5.50243 7.71051 5.48623C7.68051 5.47242 7.65891 5.44963 7.62411 5.44062C7.60431 5.43642 7.24851 5.07643 7.21011 5.06203C7.13391 5.03202 7.12011 4.93843 6.98091 4.97323C6.89811 4.99363 6.84831 4.98763 6.92031 4.85502C6.96291 4.77763 7.06551 4.47583 7.03971 4.44943C7.02111 4.42963 6.93351 4.35162 6.71451 4.51062C6.64791 4.55922 6.69171 4.48782 6.70131 4.45363C6.76371 4.34623 6.76551 4.29882 6.63291 4.38342C6.71451 4.25622 6.44631 4.48182 6.49311 4.39423C6.55251 4.28263 6.43011 4.35223 6.48891 4.24303C6.56271 4.10683 6.53811 4.07263 6.33951 4.21183C6.20151 4.30842 6.17811 4.28863 6.25191 4.17042C6.30771 4.08162 6.36591 3.98862 6.35991 3.96042C6.34251 3.88902 6.29631 3.84702 6.24891 3.80502C6.23511 3.79302 6.21591 3.78282 6.13431 3.84223C5.91591 4.00063 5.87811 3.98382 6.02811 3.77143C6.10131 3.66882 6.07431 3.65682 6.05391 3.64242C6.02751 3.62442 5.95791 3.65023 5.91591 3.64843C5.87271 3.64663 5.78511 3.69222 5.71251 3.72162C5.64471 3.74922 5.73351 3.61542 5.74671 3.55842C5.74971 3.54702 5.73951 3.54702 5.70951 3.56982C5.45931 3.76302 5.69211 3.46662 5.52111 3.57882C5.70051 3.27702 5.53851 3.31782 5.30931 3.42462C5.24931 3.45283 5.28111 3.38322 5.19531 3.43483C5.37711 3.21343 5.14911 3.39462 5.21091 3.29443C5.30751 3.13722 5.27631 3.10903 5.23611 3.08683C5.04831 2.98183 4.88031 2.85763 4.71111 2.73463C4.69011 2.71903 4.40751 2.48682 4.25751 2.44062L3.74091 1.88322C3.74451 1.87362 3.74691 1.86462 3.75171 1.85502C3.79131 1.78122 3.71931 1.80462 3.67551 1.81242L3.65391 1.78902C3.67731 1.75302 3.66411 1.75422 3.63591 1.76982L3.43431 1.55262C3.47811 1.46982 3.49431 1.41403 3.37731 1.49083L3.35511 1.46682C3.39351 1.40382 3.43551 1.33722 3.43311 1.31442C3.42471 1.23462 3.43011 1.13862 3.22071 1.26222C3.20331 1.27302 3.19371 1.27542 3.18171 1.27962L3.14391 1.23883C3.16731 1.16203 3.24651 1.03062 3.14691 1.07682C3.05091 1.12002 2.92071 0.871625 2.83131 0.899225L2.73351 0.795425C2.76351 0.733625 2.74491 0.722225 2.68071 0.755825L1.97691 0.228425C1.98171 0.185825 1.87971 0.204425 1.86831 0.203225C1.80471 0.199625 1.66731 0.221825 1.18011 0.692825C0.857307 1.00542 0.594507 1.30242 0.684507 1.39242C0.790707 1.49862 0.902307 1.60002 1.01451 1.70082Z" fill="black"/>
</svg>
